<svg xmlns="http://www.w3.org/2000/svg" viewBox="0 0 375.07953 124.50351000000006" height="124.50351000000006" width="375.07953"><g><svg/></g><g><svg viewBox="0 0 375.07953 124.50351000000006" height="124.50351000000006" width="375.07953"><g transform="matrix(1,0,0,1,-10.22024,-63.415989999999994)"><path d="M10.22 183.784v-120.368h375.08v120.368h-129.174l0-3.867h125.307v-112.634h-367.346v112.634l25.294 0 0 3.867z" fill="#0718c4" fill-rule="nonzero" stroke="none" stroke-width="1" stroke-linecap="butt" stroke-linejoin="miter" stroke-miterlimit="10" stroke-dasharray="" stroke-dashoffset="0" font-family="none" font-weight="none" font-size="none" text-anchor="none" style="mix-blend-mode: normal" data-fill-palette-color="tertiary"/><g><path d="M51.08 175.9l9.012-0.017-0.081 3.505-2.466 0.099-0.626 7.84-3.492 0.179 0.017-7.837-2.462 0.133zM70.096 176.08l0.264 11.294-4.131 0.2-0.034-3.488h-1.904l-0.115 3.62h-3.705l0.315-11.626 3.936 0.182-0.248 5.937h1.836l0.017-6.218zM80.375 181.024v0c0 0.481-0.033 0.961-0.098 1.44v0c-0.944 0.061-1.882 0.159-2.815 0.294-0.93 0.135-1.862 0.269-2.794 0.4v0c0.144 0.397 0.369 0.715 0.674 0.951 0.307 0.237 0.673 0.356 1.098 0.356v0c0.219 0 0.459-0.042 0.721-0.125 0.262-0.081 0.523-0.184 0.782-0.308 0.26-0.124 0.508-0.259 0.745-0.403 0.237-0.142 0.44-0.271 0.61-0.387v0l-0.396 3.753c-0.214 0.165-0.447 0.306-0.698 0.423-0.251 0.115-0.511 0.209-0.782 0.281-0.269 0.07-0.541 0.122-0.816 0.156-0.278 0.034-0.549 0.051-0.813 0.051v0c-0.544 0-1.043-0.075-1.497-0.224-0.452-0.149-0.86-0.358-1.226-0.626-0.366-0.266-0.688-0.581-0.965-0.945-0.275-0.364-0.503-0.761-0.685-1.192-0.183-0.429-0.321-0.884-0.413-1.365-0.095-0.479-0.142-0.963-0.142-1.453v0c0-0.513 0.047-1.025 0.142-1.537 0.093-0.513 0.234-1.006 0.424-1.48 0.192-0.474 0.432-0.914 0.721-1.321 0.289-0.404 0.627-0.759 1.013-1.064 0.386-0.303 0.823-0.538 1.31-0.707 0.488-0.172 1.026-0.257 1.616-0.258v0c0.49 0 0.938 0.068 1.344 0.203 0.404 0.133 0.765 0.321 1.084 0.563 0.316 0.239 0.592 0.524 0.826 0.853 0.235 0.332 0.428 0.694 0.58 1.087 0.151 0.395 0.264 0.812 0.338 1.25 0.075 0.438 0.112 0.883 0.112 1.334zM77.066 180.777v-0.183c0-0.154-0.016-0.312-0.047-0.474-0.034-0.163-0.088-0.31-0.163-0.444-0.075-0.131-0.173-0.239-0.295-0.325-0.12-0.086-0.271-0.129-0.453-0.129v0c-0.221 0-0.415 0.06-0.583 0.18-0.167 0.117-0.312 0.265-0.433 0.444-0.122 0.181-0.221 0.376-0.298 0.586-0.077 0.208-0.134 0.4-0.173 0.575v0zM93.844 184.763v0c0 0.456-0.085 0.85-0.254 1.182-0.167 0.33-0.392 0.611-0.674 0.843-0.28 0.233-0.603 0.421-0.969 0.566-0.368 0.147-0.751 0.262-1.148 0.345-0.395 0.081-0.792 0.135-1.192 0.163-0.4 0.029-0.773 0.044-1.121 0.044v0c-0.341 0-0.695-0.012-1.063-0.037-0.366-0.025-0.73-0.068-1.094-0.129-0.364-0.061-0.723-0.142-1.077-0.244-0.352-0.102-0.685-0.23-0.999-0.386v0l-0.017-10.648c0.309-0.126 0.638-0.242 0.985-0.345 0.345-0.102 0.699-0.186 1.06-0.254 0.361-0.07 0.721-0.123 1.081-0.159 0.359-0.036 0.706-0.054 1.039-0.055v0c0.393 0 0.789 0.025 1.189 0.075 0.4 0.05 0.783 0.133 1.152 0.251 0.37 0.115 0.716 0.265 1.036 0.45 0.318 0.183 0.597 0.41 0.837 0.681 0.242 0.271 0.429 0.585 0.562 0.941 0.135 0.359 0.203 0.773 0.203 1.243v0c0 0.307-0.044 0.596-0.132 0.867-0.088 0.271-0.214 0.514-0.379 0.728-0.165 0.214-0.366 0.397-0.603 0.549-0.237 0.151-0.505 0.263-0.803 0.335v0c0.357 0.095 0.683 0.233 0.979 0.413 0.296 0.183 0.546 0.403 0.752 0.661 0.208 0.26 0.368 0.552 0.481 0.877 0.113 0.325 0.169 0.673 0.169 1.043zM89.644 180.049v0c0-0.16-0.034-0.297-0.101-0.41-0.065-0.113-0.147-0.204-0.244-0.274-0.095-0.072-0.199-0.125-0.312-0.16-0.113-0.032-0.214-0.047-0.304-0.047v0c-0.108 0-0.216 0.016-0.322 0.047-0.104 0.034-0.205 0.072-0.305 0.116v0l-0.051 1.835c0.126 0 0.283-0.01 0.471-0.03 0.187-0.023 0.368-0.071 0.542-0.146 0.174-0.075 0.322-0.185 0.443-0.332 0.122-0.144 0.183-0.344 0.183-0.599zM88.469 182.745v0c-0.16 0-0.315 0.017-0.464 0.05v0l-0.03 1.883c0.081 0.018 0.163 0.034 0.244 0.048 0.079 0.014 0.157 0.02 0.233 0.02v0c0.115 0 0.242-0.012 0.38-0.037 0.138-0.025 0.268-0.075 0.389-0.149 0.122-0.075 0.222-0.175 0.301-0.302 0.081-0.126 0.122-0.295 0.122-0.504v0c0-0.21-0.041-0.38-0.122-0.512-0.079-0.133-0.176-0.237-0.291-0.311-0.117-0.075-0.245-0.124-0.383-0.149-0.138-0.025-0.264-0.037-0.379-0.037zM103.354 181.024v0c0 0.481-0.034 0.961-0.102 1.44v0c-0.942 0.061-1.878 0.159-2.811 0.294-0.93 0.135-1.862 0.269-2.794 0.4v0c0.142 0.397 0.367 0.715 0.674 0.951 0.305 0.237 0.669 0.356 1.094 0.356v0c0.221 0 0.463-0.042 0.725-0.125 0.262-0.081 0.523-0.184 0.782-0.308 0.257-0.124 0.505-0.259 0.742-0.403 0.237-0.142 0.441-0.271 0.613-0.387v0l-0.396 3.753c-0.214 0.165-0.447 0.306-0.698 0.423-0.251 0.115-0.511 0.209-0.782 0.281-0.271 0.07-0.544 0.122-0.82 0.156-0.275 0.034-0.545 0.051-0.809 0.051v0c-0.546 0-1.045-0.075-1.497-0.224-0.452-0.149-0.86-0.358-1.226-0.626-0.368-0.266-0.69-0.581-0.966-0.945-0.275-0.364-0.505-0.761-0.687-1.192-0.181-0.429-0.318-0.884-0.413-1.365-0.093-0.479-0.139-0.963-0.139-1.453v0c0-0.513 0.046-1.025 0.139-1.537 0.095-0.513 0.237-1.006 0.426-1.48 0.19-0.474 0.43-0.914 0.722-1.321 0.289-0.404 0.627-0.759 1.012-1.064 0.386-0.303 0.823-0.538 1.311-0.707 0.488-0.172 1.026-0.257 1.616-0.258v0c0.49 0 0.938 0.068 1.344 0.203 0.404 0.133 0.764 0.321 1.08 0.563 0.318 0.239 0.595 0.524 0.83 0.853 0.233 0.332 0.424 0.694 0.576 1.087 0.154 0.395 0.268 0.812 0.342 1.25 0.075 0.438 0.112 0.883 0.112 1.334zM100.045 180.777v-0.183c0-0.154-0.017-0.312-0.051-0.474-0.032-0.163-0.085-0.31-0.159-0.444-0.075-0.131-0.173-0.239-0.295-0.325-0.122-0.086-0.273-0.129-0.454-0.129v0c-0.221 0-0.415 0.06-0.582 0.18-0.169 0.117-0.315 0.265-0.437 0.444-0.12 0.181-0.218 0.376-0.295 0.586-0.079 0.208-0.138 0.4-0.176 0.575v0zM112.366 183.473v0c0 0.754-0.131 1.405-0.393 1.954-0.262 0.549-0.621 1.001-1.077 1.358-0.454 0.354-0.986 0.616-1.595 0.786-0.61 0.167-1.264 0.251-1.964 0.25v0c-0.269 0-0.564-0.036-0.888-0.108-0.323-0.07-0.649-0.159-0.979-0.268-0.332-0.108-0.65-0.224-0.955-0.345-0.307-0.124-0.579-0.242-0.816-0.352v0l0.363-3.241c0.47 0.28 0.99 0.493 1.561 0.64 0.569 0.147 1.13 0.22 1.683 0.22v0c0.104 0 0.23-0.005 0.379-0.014 0.149-0.009 0.291-0.034 0.427-0.074 0.133-0.041 0.247-0.103 0.342-0.186 0.093-0.084 0.139-0.202 0.139-0.356v0c0-0.104-0.033-0.193-0.098-0.268-0.065-0.075-0.151-0.135-0.258-0.183-0.104-0.047-0.222-0.084-0.355-0.108-0.131-0.025-0.26-0.043-0.386-0.054-0.126-0.009-0.245-0.014-0.356-0.014-0.111 0-0.199 0-0.264 0v0c-0.474 0-0.907-0.075-1.297-0.223-0.388-0.149-0.721-0.36-0.999-0.633-0.278-0.273-0.494-0.604-0.65-0.993-0.154-0.388-0.23-0.82-0.231-1.293v0c0-0.65 0.131-1.234 0.393-1.751 0.262-0.515 0.612-0.953 1.05-1.314 0.438-0.361 0.942-0.638 1.51-0.83 0.567-0.194 1.154-0.291 1.762-0.291v0c0.269 0 0.546 0.01 0.833 0.03 0.287 0.02 0.572 0.055 0.856 0.105 0.284 0.05 0.561 0.113 0.83 0.19 0.271 0.077 0.527 0.173 0.769 0.288v0l-0.312 3.356c-0.375-0.126-0.768-0.233-1.178-0.319-0.411-0.084-0.813-0.125-1.206-0.125v0c-0.07 0-0.161 0.001-0.274 0.004-0.113 0.002-0.231 0.01-0.356 0.023-0.124 0.014-0.249 0.034-0.376 0.061-0.129 0.029-0.243 0.067-0.342 0.112-0.097 0.047-0.176 0.11-0.237 0.186-0.061 0.077-0.089 0.168-0.084 0.275v0c0.007 0.122 0.053 0.216 0.138 0.281 0.084 0.065 0.193 0.114 0.329 0.145 0.135 0.029 0.284 0.044 0.447 0.044 0.163 0 0.324-0.005 0.484-0.013 0.16-0.007 0.309-0.015 0.447-0.024 0.138-0.009 0.251-0.01 0.339-0.003v0c0.44 0.027 0.837 0.121 1.189 0.281 0.354 0.16 0.654 0.373 0.897 0.636 0.246 0.264 0.433 0.579 0.562 0.945 0.131 0.368 0.196 0.772 0.197 1.213zM112.44 176.063l9.012-0.014-0.084 3.505-2.462 0.099-0.299 7.674-3.488 0.179-0.315-7.671-2.465 0.133zM133.12 176.411v0l-0.299 3.489c-0.16-0.043-0.317-0.073-0.47-0.092-0.156-0.016-0.314-0.024-0.474-0.023v0c-0.391 0-0.763 0.05-1.118 0.149-0.357 0.099-0.672 0.251-0.945 0.453-0.273 0.205-0.491 0.464-0.654 0.776-0.163 0.312-0.244 0.68-0.243 1.104v0c0 0.307 0.046 0.576 0.138 0.806 0.09 0.228 0.219 0.418 0.387 0.569 0.169 0.151 0.374 0.265 0.613 0.342 0.239 0.079 0.506 0.119 0.799 0.119v0c0.203 0 0.412-0.021 0.626-0.065 0.214-0.041 0.43-0.097 0.647-0.169 0.214-0.072 0.421-0.155 0.62-0.247 0.199-0.095 0.383-0.194 0.552-0.298v0l-0.132 3.888c-0.214 0.108-0.446 0.205-0.694 0.291-0.248 0.086-0.503 0.16-0.766 0.223-0.262 0.063-0.524 0.112-0.785 0.146-0.262 0.032-0.511 0.047-0.749 0.048v0c-0.781 0-1.494-0.146-2.137-0.437-0.641-0.291-1.192-0.69-1.653-1.196-0.461-0.503-0.817-1.089-1.07-1.758-0.253-0.666-0.379-1.376-0.379-2.13v0c0-0.905 0.128-1.749 0.383-2.53 0.257-0.783 0.636-1.463 1.134-2.039 0.499-0.576 1.115-1.028 1.849-1.358 0.736-0.327 1.582-0.491 2.537-0.491v0c0.379 0 0.765 0.03 1.158 0.092 0.391 0.061 0.765 0.174 1.125 0.338zM143.463 176.08l0.264 11.294-4.135 0.2-0.034-3.488h-1.9l-0.115 3.62h-3.706l0.315-11.626 3.936 0.182-0.247 5.937h1.835l0.014-6.218zM154.73 181.373v0c0 0.501-0.058 0.984-0.173 1.449-0.115 0.467-0.282 0.904-0.501 1.311-0.217 0.409-0.481 0.782-0.792 1.121-0.312 0.339-0.662 0.63-1.05 0.874-0.388 0.242-0.812 0.43-1.27 0.566-0.456 0.135-0.94 0.203-1.453 0.203v0c-0.497 0-0.97-0.063-1.419-0.19-0.449-0.129-0.869-0.307-1.26-0.535-0.393-0.228-0.747-0.503-1.063-0.826-0.318-0.323-0.588-0.681-0.81-1.074-0.224-0.395-0.397-0.818-0.521-1.27-0.124-0.452-0.186-0.923-0.187-1.416v0c0-0.479 0.058-0.948 0.173-1.409 0.115-0.461 0.282-0.894 0.501-1.3 0.217-0.409 0.48-0.783 0.789-1.124 0.309-0.343 0.655-0.639 1.037-0.888 0.384-0.248 0.799-0.441 1.246-0.579 0.447-0.138 0.918-0.207 1.412-0.206v0c0.799 0 1.529 0.124 2.188 0.372 0.659 0.248 1.221 0.603 1.687 1.064 0.465 0.461 0.826 1.017 1.083 1.669 0.255 0.653 0.383 1.382 0.383 2.188zM151.059 181.586v0c0-0.237-0.034-0.466-0.102-0.687-0.07-0.224-0.17-0.422-0.301-0.596-0.133-0.174-0.297-0.315-0.491-0.424-0.196-0.106-0.421-0.159-0.674-0.159v0c-0.26 0-0.492 0.046-0.698 0.139-0.203 0.095-0.378 0.224-0.525 0.386-0.144 0.163-0.255 0.352-0.332 0.569-0.079 0.219-0.119 0.449-0.118 0.691v0c0 0.23 0.034 0.462 0.101 0.694 0.065 0.233 0.165 0.443 0.298 0.63 0.131 0.187 0.295 0.339 0.492 0.454 0.196 0.115 0.423 0.173 0.68 0.173v0c0.26 0 0.493-0.051 0.701-0.153 0.205-0.102 0.38-0.239 0.525-0.413 0.142-0.174 0.252-0.374 0.329-0.599 0.077-0.226 0.115-0.461 0.115-0.705zM155.228 176.296l4.399-0.233-0.579 11.264-3.488 0.179zM168.185 176.411v0l-0.298 3.489c-0.16-0.043-0.317-0.073-0.47-0.092-0.156-0.016-0.314-0.024-0.474-0.023v0c-0.391 0-0.763 0.05-1.118 0.149-0.357 0.099-0.672 0.251-0.945 0.453-0.273 0.205-0.491 0.464-0.654 0.776-0.163 0.312-0.244 0.68-0.243 1.104v0c0 0.307 0.046 0.576 0.138 0.806 0.09 0.228 0.219 0.418 0.387 0.569 0.169 0.151 0.374 0.265 0.613 0.342 0.239 0.079 0.506 0.119 0.799 0.119v0c0.203 0 0.412-0.021 0.626-0.065 0.214-0.041 0.43-0.097 0.647-0.169 0.214-0.072 0.421-0.155 0.62-0.247 0.199-0.095 0.383-0.194 0.552-0.298v0l-0.132 3.888c-0.214 0.108-0.446 0.205-0.694 0.291-0.248 0.086-0.503 0.16-0.766 0.223-0.262 0.063-0.524 0.112-0.785 0.146-0.262 0.032-0.511 0.047-0.749 0.048v0c-0.781 0-1.494-0.146-2.137-0.437-0.641-0.291-1.192-0.69-1.653-1.196-0.461-0.503-0.817-1.089-1.07-1.758-0.253-0.666-0.379-1.376-0.379-2.13v0c0-0.905 0.128-1.749 0.383-2.53 0.257-0.783 0.636-1.463 1.134-2.039 0.499-0.576 1.115-1.028 1.849-1.358 0.736-0.327 1.582-0.491 2.537-0.491v0c0.379 0 0.765 0.03 1.158 0.092 0.391 0.061 0.765 0.174 1.124 0.338zM178.207 181.024v0c0 0.481-0.034 0.961-0.102 1.44v0c-0.942 0.061-1.878 0.159-2.811 0.294-0.93 0.135-1.862 0.269-2.794 0.4v0c0.142 0.397 0.367 0.715 0.674 0.951 0.305 0.237 0.669 0.356 1.094 0.356v0c0.221 0 0.463-0.042 0.725-0.125 0.262-0.081 0.523-0.184 0.782-0.308 0.26-0.124 0.508-0.259 0.745-0.403 0.237-0.142 0.44-0.271 0.61-0.387v0l-0.396 3.753c-0.214 0.165-0.447 0.306-0.698 0.423-0.251 0.115-0.511 0.209-0.782 0.281-0.271 0.07-0.544 0.122-0.82 0.156-0.275 0.034-0.545 0.051-0.809 0.051v0c-0.546 0-1.045-0.075-1.497-0.224-0.452-0.149-0.86-0.358-1.226-0.626-0.368-0.266-0.69-0.581-0.966-0.945-0.275-0.364-0.503-0.761-0.684-1.192-0.183-0.429-0.322-0.884-0.416-1.365-0.093-0.479-0.139-0.963-0.139-1.453v0c0-0.513 0.046-1.025 0.139-1.537 0.095-0.513 0.237-1.006 0.426-1.48 0.19-0.474 0.43-0.914 0.722-1.321 0.289-0.404 0.627-0.759 1.012-1.064 0.386-0.303 0.823-0.538 1.311-0.707 0.488-0.172 1.026-0.257 1.616-0.258v0c0.49 0 0.938 0.068 1.344 0.203 0.404 0.133 0.764 0.321 1.08 0.563 0.318 0.239 0.595 0.524 0.83 0.853 0.233 0.332 0.426 0.694 0.579 1.087 0.151 0.395 0.264 0.812 0.339 1.25 0.075 0.438 0.112 0.883 0.112 1.334zM174.898 180.777v-0.183c0-0.154-0.017-0.312-0.051-0.474-0.032-0.163-0.085-0.31-0.159-0.444-0.075-0.131-0.173-0.239-0.295-0.325-0.122-0.086-0.273-0.129-0.453-0.129v0c-0.221 0-0.415 0.06-0.583 0.18-0.169 0.117-0.314 0.265-0.433 0.444-0.122 0.181-0.221 0.376-0.299 0.586-0.079 0.208-0.138 0.4-0.176 0.575v0zM182.247 175.947h7.624c-0.032 0.519-0.061 1.032-0.088 1.538-0.029 0.508-0.065 1.022-0.109 1.541v0l-3.505 0.18v1.043h3.041l-0.166 2.563-2.892 0.082 0.017 4.565-4.186 0.081zM200.373 181.373v0c0 0.501-0.058 0.984-0.173 1.449-0.117 0.467-0.284 0.904-0.501 1.311-0.217 0.409-0.481 0.782-0.793 1.121-0.312 0.339-0.662 0.63-1.05 0.874-0.391 0.242-0.814 0.43-1.27 0.566-0.458 0.135-0.944 0.203-1.456 0.203v0c-0.497 0-0.97-0.063-1.419-0.19-0.449-0.129-0.869-0.307-1.26-0.535-0.391-0.228-0.745-0.503-1.063-0.826-0.316-0.323-0.586-0.681-0.81-1.074-0.224-0.395-0.397-0.818-0.521-1.27-0.124-0.452-0.186-0.923-0.186-1.416v0c0-0.479 0.059-0.948 0.176-1.409 0.115-0.461 0.281-0.894 0.498-1.3 0.219-0.409 0.483-0.783 0.792-1.124 0.307-0.343 0.653-0.639 1.036-0.888 0.384-0.248 0.798-0.441 1.243-0.579 0.447-0.138 0.919-0.207 1.416-0.206v0c0.799 0 1.529 0.124 2.188 0.372 0.657 0.248 1.219 0.603 1.686 1.064 0.465 0.461 0.825 1.017 1.081 1.669 0.257 0.653 0.386 1.382 0.386 2.188zM196.702 181.586v0c0-0.237-0.035-0.466-0.105-0.687-0.068-0.224-0.168-0.422-0.302-0.596-0.131-0.174-0.295-0.315-0.491-0.424-0.196-0.106-0.421-0.159-0.674-0.159v0c-0.26 0-0.491 0.046-0.694 0.139-0.203 0.095-0.378 0.224-0.525 0.386-0.147 0.163-0.259 0.352-0.335 0.569-0.077 0.219-0.115 0.449-0.115 0.691v0c0 0.23 0.033 0.462 0.098 0.694 0.068 0.233 0.167 0.443 0.298 0.63 0.133 0.187 0.297 0.339 0.491 0.454 0.196 0.115 0.424 0.173 0.684 0.173v0c0.26 0 0.492-0.051 0.698-0.153 0.208-0.102 0.383-0.239 0.525-0.413 0.144-0.174 0.255-0.374 0.331-0.599 0.077-0.226 0.115-0.461 0.116-0.705zM210.641 179.734v0c0 0.431-0.037 0.822-0.111 1.172-0.075 0.35-0.192 0.671-0.353 0.961-0.158 0.294-0.365 0.564-0.619 0.813-0.253 0.246-0.559 0.483-0.918 0.711v0l1.967 3.506-3.718 0.728-1.274-3.522-1.026 0.03-0.149 3.441h-3.556c0.029-1.258 0.056-2.508 0.081-3.752 0.025-1.246 0.053-2.498 0.085-3.756v0c0.011-0.634 0.023-1.263 0.034-1.887 0.011-0.621 0.033-1.249 0.064-1.883v0c0.386-0.144 0.767-0.263 1.142-0.355 0.375-0.095 0.752-0.168 1.131-0.22 0.377-0.052 0.76-0.088 1.148-0.109 0.388-0.018 0.787-0.027 1.195-0.027v0c0.628 0 1.235 0.087 1.822 0.261 0.587 0.174 1.106 0.435 1.558 0.782 0.454 0.345 0.816 0.778 1.087 1.297 0.273 0.517 0.41 1.12 0.41 1.809zM206.936 180.001v0c0-0.233-0.032-0.445-0.095-0.636-0.063-0.194-0.157-0.361-0.281-0.502-0.124-0.14-0.278-0.251-0.46-0.331-0.185-0.079-0.402-0.119-0.651-0.119v0c-0.111 0-0.218 0.007-0.321 0.02-0.106 0.014-0.209 0.034-0.308 0.061v0l-0.133 3.075h0.2c0.237 0 0.479-0.029 0.725-0.088 0.244-0.061 0.464-0.155 0.66-0.281 0.196-0.129 0.357-0.291 0.481-0.487 0.122-0.199 0.183-0.436 0.183-0.712zM220.747 176.229l3.966 0.281-3.885 6.35 0.116 4.68h-4.251l0.102-4.646-3.028-6.134 4.217-0.531 1.324 3.573zM234.091 181.373v0c0 0.501-0.058 0.984-0.173 1.449-0.117 0.467-0.284 0.904-0.501 1.311-0.217 0.409-0.481 0.782-0.793 1.121-0.312 0.339-0.662 0.63-1.049 0.874-0.388 0.242-0.812 0.43-1.27 0.566-0.458 0.135-0.944 0.203-1.457 0.203v0c-0.497 0-0.97-0.063-1.419-0.19-0.447-0.129-0.867-0.307-1.26-0.535-0.391-0.228-0.745-0.503-1.063-0.826-0.316-0.323-0.586-0.681-0.81-1.074-0.224-0.395-0.397-0.818-0.521-1.27-0.124-0.452-0.186-0.923-0.186-1.416v0c0-0.479 0.059-0.948 0.176-1.409 0.115-0.461 0.281-0.894 0.498-1.3 0.219-0.409 0.483-0.783 0.792-1.124 0.307-0.343 0.653-0.639 1.036-0.888 0.384-0.248 0.798-0.441 1.243-0.579 0.447-0.138 0.919-0.207 1.416-0.206v0c0.799 0 1.529 0.124 2.188 0.372 0.657 0.248 1.219 0.603 1.686 1.064 0.465 0.461 0.826 1.017 1.084 1.669 0.255 0.653 0.383 1.382 0.383 2.188zM230.42 181.586v0c0-0.237-0.034-0.466-0.102-0.687-0.07-0.224-0.172-0.422-0.305-0.596-0.131-0.174-0.295-0.315-0.491-0.424-0.196-0.106-0.421-0.159-0.674-0.159v0c-0.26 0-0.491 0.046-0.694 0.139-0.203 0.095-0.378 0.224-0.525 0.386-0.147 0.163-0.259 0.352-0.335 0.569-0.077 0.219-0.115 0.449-0.115 0.691v0c0 0.23 0.033 0.462 0.098 0.694 0.068 0.233 0.167 0.443 0.298 0.63 0.133 0.187 0.297 0.339 0.491 0.454 0.196 0.115 0.424 0.173 0.684 0.173v0c0.26 0 0.492-0.051 0.698-0.153 0.208-0.102 0.383-0.239 0.525-0.413 0.144-0.174 0.255-0.374 0.332-0.599 0.077-0.226 0.115-0.461 0.115-0.705zM244.525 176.063v0c-0.248 1.942-0.461 3.873-0.636 5.794-0.176 1.921-0.344 3.854-0.505 5.798v0l-3.39 0.251 0.149-1.273c-0.111 0.126-0.238 0.236-0.383 0.328-0.147 0.095-0.303 0.17-0.467 0.227-0.167 0.059-0.339 0.1-0.515 0.125-0.176 0.025-0.344 0.035-0.505 0.031v0c-0.375-0.007-0.727-0.08-1.056-0.22-0.332-0.14-0.636-0.327-0.911-0.563-0.275-0.235-0.523-0.508-0.742-0.819-0.221-0.312-0.408-0.639-0.559-0.982-0.151-0.345-0.268-0.698-0.349-1.057-0.079-0.357-0.119-0.703-0.118-1.04v0c0-0.497 0.009-1.012 0.027-1.544 0.02-0.531 0.055-1.063 0.105-1.599 0.05-0.535 0.114-1.065 0.193-1.588 0.081-0.524 0.182-1.025 0.301-1.504v0c0.673 0.034 1.349 0.064 2.029 0.092 0.677 0.027 1.352 0.035 2.025 0.024v0c-0.126 0.481-0.252 0.962-0.376 1.442-0.124 0.483-0.236 0.969-0.335 1.457-0.099 0.488-0.179 0.977-0.24 1.466-0.061 0.49-0.091 0.987-0.092 1.49v0c0 0.115 0.006 0.28 0.017 0.495 0.011 0.214 0.041 0.427 0.088 0.636 0.045 0.21 0.116 0.393 0.214 0.549 0.097 0.158 0.234 0.237 0.409 0.237v0c0.21 0 0.397-0.089 0.563-0.268 0.165-0.181 0.31-0.422 0.436-0.724 0.126-0.303 0.236-0.653 0.329-1.05 0.09-0.397 0.167-0.812 0.23-1.243 0.063-0.433 0.114-0.87 0.153-1.311 0.038-0.443 0.068-0.858 0.088-1.246 0.018-0.388 0.032-0.737 0.04-1.047 0.009-0.307 0.014-0.546 0.014-0.718v0c0-0.111-0.003-0.218-0.01-0.321-0.005-0.106-0.012-0.214-0.024-0.325v0c0.359 0.011 0.715 0.02 1.067 0.027 0.352 0.005 0.708 0.007 1.067 0.006v0c0.275 0 0.552-0.001 0.829-0.003 0.28-0.002 0.56-0.012 0.84-0.03z" fill="#77d4fc" fill-rule="nonzero" stroke="none" stroke-width="1" stroke-linecap="butt" stroke-linejoin="miter" stroke-miterlimit="10" stroke-dasharray="" stroke-dashoffset="0" font-family="none" font-weight="none" font-size="none" text-anchor="none" style="mix-blend-mode: normal" data-fill-palette-color="secondary" id="text-1"/></g></g><g transform="matrix(1,0,0,1,29.33176499999999,40.81192268558955)"><svg viewBox="0 0 316.416 42.87966462882096" height="42.87966462882096" width="316.416"><g><svg viewBox="0 0 316.416 42.87966462882096" height="42.87966462882096" width="316.416"><g><svg viewBox="0 0 316.416 42.87966462882096" height="42.87966462882096" width="316.416"><g><svg viewBox="0 0 316.416 42.87966462882096" height="42.87966462882096" width="316.416"><g id="textblocktransform"><svg viewBox="0 0 316.416 42.87966462882096" height="42.87966462882096" width="316.416" id="textblock"><g><svg viewBox="0 0 316.416 42.87966462882096" height="42.87966462882096" width="316.416"><g transform="matrix(1,0,0,1,0,0)"><svg width="316.416" viewBox="1.6 -35.8 343.46999999999997 46.55" height="42.87966462882096" data-palette-color="#0718c4"><path d="M1.6-33L28.6-33 28.6-29.25 17.1-29.25 17.1 0 13.1 0 13.1-29.25 1.6-29.25 1.6-33ZM45.2-25.5L45.2-25.5Q48.75-25.5 51.47-23.95 54.2-22.4 55.75-19.48 57.3-16.55 57.3-12.5L57.3-12.5Q57.3-8.45 55.75-5.53 54.2-2.6 51.47-1.05 48.75 0.5 45.2 0.5L45.2 0.5Q41.7 0.5 38.95-1.05 36.2-2.6 34.65-5.53 33.1-8.45 33.1-12.5L33.1-12.5Q33.1-16.55 34.65-19.48 36.2-22.4 38.95-23.95 41.7-25.5 45.2-25.5ZM45.2-22.05L45.2-22.05Q42.65-22.05 40.85-20.9 39.05-19.75 38.07-17.63 37.1-15.5 37.1-12.5L37.1-12.5Q37.1-9.55 38.07-7.4 39.05-5.25 40.85-4.1 42.65-2.95 45.2-2.95L45.2-2.95Q47.75-2.95 49.55-4.1 51.35-5.25 52.32-7.4 53.3-9.55 53.3-12.5L53.3-12.5Q53.3-15.5 52.32-17.63 51.35-19.75 49.55-20.9 47.75-22.05 45.2-22.05ZM75.3 0.5L75.3 0.5Q71.75 0.5 68.97-1.05 66.2-2.6 64.65-5.53 63.1-8.45 63.1-12.5L63.1-12.5Q63.1-16.55 64.65-19.48 66.2-22.4 68.9-23.95 71.6-25.5 75.05-25.5L75.05-25.5Q78.55-25.5 81.02-24 83.5-22.5 84.8-19.93 86.1-17.35 86.1-14.15L86.1-14.15Q86.1-13.3 86.05-12.6 86-11.9 85.9-11.35L85.9-11.35 65.7-11.35 65.7-14.9 84.15-14.9 82.1-14.5Q82.1-18.1 80.12-20.05 78.15-22 74.95-22L74.95-22Q72.5-22 70.72-20.88 68.95-19.75 67.97-17.63 67-15.5 67-12.5L67-12.5Q67-9.55 68-7.4 69-5.25 70.82-4.13 72.65-3 75.2-3L75.2-3Q77.95-3 79.67-4.05 81.4-5.1 82.45-6.9L82.45-6.9 85.6-5.05Q84.65-3.35 83.17-2.1 81.7-0.85 79.72-0.18 77.75 0.5 75.3 0.5ZM95.69-29.8L95.69-29.8Q94.34-29.8 93.52-30.63 92.69-31.45 92.69-32.8L92.69-32.8Q92.69-34.15 93.52-34.98 94.34-35.8 95.69-35.8L95.69-35.8Q97.04-35.8 97.87-34.98 98.69-34.15 98.69-32.8L98.69-32.8Q98.69-31.45 97.87-30.63 97.04-29.8 95.69-29.8ZM93.69-25L97.69-25 97.69 0 93.69 0 93.69-25ZM117.34-25.5L117.34-25.5Q119.94-25.5 121.92-24.7 123.89-23.9 125.34-22.4 126.79-20.9 127.69-18.85L127.69-18.85 123.89-17.05Q123.09-19.45 121.47-20.73 119.84-22 117.24-22L117.24-22Q114.74-22 112.94-20.88 111.14-19.75 110.19-17.63 109.24-15.5 109.24-12.5L109.24-12.5Q109.24-9.55 110.19-7.4 111.14-5.25 112.94-4.13 114.74-3 117.24-3L117.24-3Q119.19-3 120.62-3.6 122.04-4.2 122.97-5.35 123.89-6.5 124.24-8.15L124.24-8.15 127.94-6.85Q127.09-4.55 125.62-2.9 124.14-1.25 122.07-0.38 119.99 0.5 117.34 0.5L117.34 0.5Q113.84 0.5 111.09-1.05 108.34-2.6 106.79-5.53 105.24-8.45 105.24-12.5L105.24-12.5Q105.24-16.55 106.79-19.48 108.34-22.4 111.09-23.95 113.84-25.5 117.34-25.5ZM156.04 0L152.04 0 152.04-25 155.54-25 155.79-21.1Q157.14-23.4 159.31-24.45 161.49-25.5 163.79-25.5L163.79-25.5Q166.44-25.5 168.79-24.3 171.14-23.1 172.39-20.6L172.39-20.6Q173.19-22.3 174.64-23.38 176.09-24.45 177.81-24.98 179.54-25.5 181.09-25.5L181.09-25.5Q183.49-25.5 185.66-24.5 187.84-23.5 189.24-21.4 190.64-19.3 190.64-16L190.64-16 190.64 0 186.64 0 186.64-15.6Q186.64-19 184.94-20.5 183.24-22 180.74-22L180.74-22Q178.79-22 177.09-21.05 175.39-20.1 174.36-18.25 173.34-16.4 173.34-13.7L173.34-13.7 173.34 0 169.34 0 169.34-15.6Q169.34-19 167.64-20.5 165.94-22 163.44-22L163.44-22Q161.79-22 160.06-21.13 158.34-20.25 157.19-18.35 156.04-16.45 156.04-13.35L156.04-13.35 156.04 0ZM214.28-9.25L214.28-16.15Q214.28-18.95 212.78-20.48 211.28-22 208.53-22L208.53-22Q205.93-22 204.13-20.88 202.33-19.75 201.48-17.25L201.48-17.25 198.23-19.25Q199.23-22.05 201.93-23.78 204.63-25.5 208.63-25.5L208.63-25.5Q211.33-25.5 213.53-24.58 215.73-23.65 217.01-21.78 218.28-19.9 218.28-16.95L218.28-16.95 218.28-4.85Q218.28-3.05 220.18-3.05L220.18-3.05Q221.13-3.05 222.03-3.3L222.03-3.3 221.83-0.15Q220.83 0.35 219.23 0.35L219.23 0.35Q217.78 0.35 216.63-0.2 215.48-0.75 214.83-1.88 214.18-3 214.18-4.7L214.18-4.7 214.18-5.2 215.18-5.05Q214.58-3.1 213.13-1.88 211.68-0.65 209.88-0.08 208.08 0.5 206.33 0.5L206.33 0.5Q204.13 0.5 202.23-0.25 200.33-1 199.21-2.53 198.08-4.05 198.08-6.3L198.08-6.3Q198.08-9.1 199.96-10.93 201.83-12.75 205.18-13.4L205.18-13.4 215.08-15.35 215.08-12.05 207.03-10.4Q204.58-9.9 203.38-9 202.18-8.1 202.18-6.5L202.18-6.5Q202.18-4.95 203.41-3.98 204.63-3 206.88-3L206.88-3Q208.33-3 209.66-3.38 210.98-3.75 212.03-4.53 213.08-5.3 213.68-6.48 214.28-7.65 214.28-9.25L214.28-9.25ZM236.98 0.5L236.98 0.5Q233.33 0.5 230.26-1.05 227.18-2.6 225.53-5.45L225.53-5.45 228.93-7.9Q230.03-5.6 232.16-4.3 234.28-3 237.28-3L237.28-3Q239.93-3 241.43-4.03 242.93-5.05 242.93-6.7L242.93-6.7Q242.93-7.75 242.26-8.63 241.58-9.5 239.68-9.9L239.68-9.9 233.68-11.15Q230.03-11.9 228.46-13.65 226.88-15.4 226.88-18L226.88-18Q226.88-20.05 228.06-21.75 229.23-23.45 231.41-24.48 233.58-25.5 236.53-25.5L236.53-25.5Q240.23-25.5 242.78-24.05 245.33-22.6 246.58-19.95L246.58-19.95 243.23-17.75Q242.38-19.95 240.48-20.98 238.58-22 236.53-22L236.53-22Q234.73-22 233.46-21.5 232.18-21 231.51-20.13 230.83-19.25 230.83-18.15L230.83-18.15Q230.83-17.05 231.58-16.13 232.33-15.2 234.38-14.8L234.38-14.8 240.63-13.5Q244.13-12.8 245.53-11.2 246.93-9.6 246.93-7.3L246.93-7.3Q246.93-4.95 245.68-3.18 244.43-1.4 242.18-0.45 239.93 0.5 236.98 0.5ZM256.23-31L260.23-32.1 260.23-6.9Q260.23-5.05 261.28-4.15 262.33-3.25 263.98-3.25L263.98-3.25Q265.43-3.25 266.48-3.75 267.53-4.25 268.38-5.1L268.38-5.1 269.78-1.75Q268.63-0.7 267.05-0.1 265.48 0.5 263.43 0.5L263.43 0.5Q261.53 0.5 259.88-0.18 258.23-0.85 257.25-2.33 256.28-3.8 256.23-6.2L256.23-6.2 256.23-31ZM251.23-25L269.33-25 269.33-21.55 251.23-21.55 251.23-25ZM285.73 0.5L285.73 0.5Q282.18 0.5 279.4-1.05 276.63-2.6 275.08-5.53 273.53-8.45 273.53-12.5L273.53-12.5Q273.53-16.55 275.08-19.48 276.63-22.4 279.33-23.95 282.03-25.5 285.48-25.5L285.48-25.5Q288.98-25.5 291.45-24 293.93-22.5 295.23-19.93 296.53-17.35 296.53-14.15L296.53-14.15Q296.53-13.3 296.48-12.6 296.43-11.9 296.33-11.35L296.33-11.35 276.13-11.35 276.13-14.9 294.58-14.9 292.53-14.5Q292.53-18.1 290.55-20.05 288.58-22 285.38-22L285.38-22Q282.93-22 281.15-20.88 279.38-19.75 278.4-17.63 277.43-15.5 277.43-12.5L277.43-12.5Q277.43-9.55 278.43-7.4 279.43-5.25 281.25-4.13 283.08-3 285.63-3L285.63-3Q288.38-3 290.1-4.05 291.83-5.1 292.88-6.9L292.88-6.9 296.03-5.05Q295.08-3.35 293.6-2.1 292.13-0.85 290.15-0.18 288.18 0.5 285.73 0.5ZM308.12 0L304.12 0 304.12-25 307.37-25 307.92-20.9Q308.97-23.2 311-24.35 313.02-25.5 315.92-25.5L315.92-25.5Q316.57-25.5 317.35-25.4 318.12-25.3 318.67-25L318.67-25 317.97-21.35Q317.42-21.55 316.77-21.65 316.12-21.75 314.92-21.75L314.92-21.75Q313.37-21.75 311.8-20.85 310.22-19.95 309.17-18.13 308.12-16.3 308.12-13.5L308.12-13.5 308.12 0ZM340.77-25L345.07-25 333.32 4.2Q332.37 6.65 331.25 8.08 330.12 9.5 328.75 10.13 327.37 10.75 325.57 10.75L325.57 10.75Q323.87 10.75 322.45 10.28 321.02 9.8 319.92 9L319.92 9 321.02 5.5Q322.02 6.4 323.15 6.83 324.27 7.25 325.37 7.25L325.37 7.25Q326.67 7.25 327.82 6.45 328.97 5.65 329.92 3.2L329.92 3.2 331.22-0.05 328.72-6 320.77-25 325.32-25 331.57-8.7 333.12-4.25 334.92-9.2 340.77-25Z" opacity="1" transform="matrix(1,0,0,1,0,0)" fill="#0718c4" class="wordmark-text-0" data-fill-palette-color="primary" id="text-0"/></svg></g></svg></g></svg></g></svg></g></svg></g></svg></g></svg></g></svg></g><defs/></svg>